HIERARCHY
ROOT Hips
{
	OFFSET -3.958830 18.904000 13.208200
	CHANNELS 6 Xposition Yposition Zposition Zrotation Yrotation Xrotation 
	JOINT LHipJoint
	{
		OFFSET 0.000000 0.000000 0.000000
		CHANNELS 3 Zrotation Yrotation Xrotation
		JOINT LeftUpLeg
		{
			OFFSET 1.800000 -1.400000 0.085000
			CHANNELS 3 Zrotation Yrotation Xrotation
			JOINT LeftLeg
			{
				OFFSET 2.215000 -6.000000 0.000000
				CHANNELS 3 Zrotation Yrotation Xrotation
				JOINT LeftFoot
				{
					OFFSET 2.500000 -6.900000 0.000000
					CHANNELS 3 Zrotation Yrotation Xrotation
					JOINT LeftToeBase
					{
						OFFSET 0.200000 -0.500000 1.950000
						CHANNELS 3 Zrotation Yrotation Xrotation
						End Site
						{
							OFFSET 0.000000 0.000000 0.000000
						}
					}
				}
			}
		}
	}
	JOINT RHipJoint
	{
		OFFSET 0.000000 0.000000 0.000000
		CHANNELS 3 Zrotation Yrotation Xrotation
		JOINT RightUpLeg
		{
			OFFSET -1.800000 -1.400000 0.085000
			CHANNELS 3 Zrotation Yrotation Xrotation
			JOINT RightLeg
			{
				OFFSET -2.215000 -6.000000 0.000000
				CHANNELS 3 Zrotation Yrotation Xrotation
				JOINT RightFoot
				{
					OFFSET -2.500000 -6.900000 0.000000
					CHANNELS 3 Zrotation Yrotation Xrotation
					JOINT RightToeBase
					{
						OFFSET -0.200000 -0.500000 1.950000
						CHANNELS 3 Zrotation Yrotation Xrotation
						End Site
						{
							OFFSET 0.000000 0.000000 0.000000
						}
					}
				}
			}
		}
	}
	JOINT LowerBack
	{
		OFFSET 0.000000 0.000000 0.000000
		CHANNELS 3 Zrotation Yrotation Xrotation
		JOINT Spine
		{
			OFFSET -0.087000 1.940000 -0.288900
			CHANNELS 3 Zrotation Yrotation Xrotation
			JOINT Spine1
			{
				OFFSET 0.000000 1.950000 0.060000
				CHANNELS 3 Zrotation Yrotation Xrotation
				JOINT Neck
				{
					OFFSET 0.000000 0.000000 0.000000
					CHANNELS 3 Zrotation Yrotation Xrotation
					JOINT Neck1
					{
						OFFSET 0.000000 1.600000 0.340000
						CHANNELS 3 Zrotation Yrotation Xrotation
						JOINT Head
						{
							OFFSET 0.000000 1.667000 -0.240000
							CHANNELS 3 Zrotation Yrotation Xrotation
							End Site
							{
								OFFSET 0.000000 0.000000 0.000000
							}
						}
					}
				}
				JOINT LeftShoulder
				{
					OFFSET 0.000000 0.000000 0.000000
					CHANNELS 3 Zrotation Yrotation Xrotation
					JOINT LeftArm
					{
						OFFSET 2.700000 1.550000 -0.730000
						CHANNELS 3 Zrotation Yrotation Xrotation
						JOINT LeftForeArm
						{
							OFFSET 5.450000 0.000000 0.000000
							CHANNELS 3 Zrotation Yrotation Xrotation
							JOINT LeftHand
							{
								OFFSET 3.450000 0.000000 0.000000
								CHANNELS 3 Zrotation Yrotation Xrotation
								JOINT LeftHandIndex1
								{
									OFFSET 0.750000 0.000000 0.000000
									CHANNELS 3 Zrotation Yrotation Xrotation
									End Site
									{
										OFFSET 0.000000 0.000000 0.000000
									}
								}
							}
						}
					}
				}
				JOINT RightShoulder
				{
					OFFSET 0.000000 0.000000 0.000000
					CHANNELS 3 Zrotation Yrotation Xrotation
					JOINT RightArm
					{
						OFFSET -2.700000 1.550000 -0.730000
						CHANNELS 3 Zrotation Yrotation Xrotation
						JOINT RightForeArm
						{
							OFFSET -5.450000 0.000000 0.000000
							CHANNELS 3 Zrotation Yrotation Xrotation
							JOINT RightHand
							{
								OFFSET -3.450000 0.000000 0.000000
								CHANNELS 3 Zrotation Yrotation Xrotation
								JOINT RightHandIndex1
								{
									OFFSET -0.750000 0.000000 0.000000
									CHANNELS 3 Zrotation Yrotation Xrotation
									End Site
									{
										OFFSET 0.000000 0.000000 0.000000
									}
								}
							}
						}
					}
				}
			}
		}
	}
}
MOTION
Frames: 11
Frame Time: 0.016667
3.529900 16.993630 -7.025280 165.554984 -21.668720 135.929782 -15.436932 13.937181 3.934946 23.579505 -4.146668 18.914218 -23.255386 19.116149 36.670566 -7.185517 10.591005 -0.250990 5.442000 3.958480 1.701140 17.932227 -9.652829 3.155086 10.028514 0.889682 12.917710 -7.340593 -9.181092 45.079962 -1.263480 -7.330767 11.314441 5.098460 -2.648300 -6.014870 -2.848661 -4.000425 -8.068486 0.379231 -4.543384 64.105678 -7.412221 1.203555 44.783310 8.090041 2.488634 -65.112196 -42.000369 45.302328 114.523335 -7.037490 3.286630 -89.880610 -2.506706 -55.483413 21.885806 -27.296544 -12.666452 -6.388191 40.057938 7.619671 -0.801051 -4.071732 -4.691833 5.456570 0.108050 -2.732690 1.517250 -13.038048 60.957349 21.042095 38.098129 12.852488 -25.194262 -43.034710 2.277565 -5.484197 -8.351403 -0.679265 -4.893710 4.942050 -1.016080 -6.722820 
3.230640 16.892710 -7.113130 168.725204 -18.951450 134.195975 -15.218535 13.809522 3.250018 27.281141 -3.204405 10.395971 -11.855987 15.274708 41.410027 -7.432813 9.495406 0.237623 4.947920 3.702290 1.159810 18.127635 -10.007665 3.457617 11.779068 0.412195 13.285691 -5.060374 -10.631662 46.421710 -1.026949 -7.813293 11.269572 5.068670 -2.622950 -6.489660 -3.485124 -2.676175 -8.075100 3.495312 -11.871363 66.873692 -13.460838 4.324408 40.607109 7.978214 2.025716 -60.645681 -39.336718 40.239876 110.971722 -6.264760 1.920220 -87.099680 -3.322927 -53.445030 21.283732 -20.717318 -12.518952 -12.762616 34.160516 -11.033660 -5.199296 -3.247459 -4.043717 5.105860 0.173620 -3.201200 1.250060 -13.375661 58.182908 20.973378 35.156130 19.648910 -29.263225 -46.535598 5.925954 -9.283524 -8.175019 -0.920108 -5.079040 4.821880 -0.815250 -6.718870 
3.059040 16.905460 -7.221500 167.271311 -15.367836 132.883996 -14.927007 13.790454 2.738157 29.399835 0.165521 9.492481 -3.581496 10.630968 33.710864 -7.847345 7.836354 1.144444 4.770300 3.552390 1.108600 18.340652 -10.647593 3.663581 11.877313 0.568524 14.804405 -8.313792 -9.460661 49.096852 -1.055027 -8.185702 11.170227 5.009160 -2.507550 -6.619910 -4.218186 -1.162229 -7.958963 1.784797 -12.066623 68.651739 -15.555916 6.084199 44.221178 6.901890 1.612624 -61.057265 -35.836659 36.256333 111.761054 -5.100100 1.178750 -89.342770 3.563055 -49.201691 20.764167 -11.246540 -18.162195 -20.014407 30.192144 -20.148630 -6.980869 -2.877470 -3.744678 5.120100 0.229290 -3.346120 1.083100 -18.941063 55.309841 26.951184 24.612514 26.895178 -48.345366 -51.430798 18.797712 -16.534434 -6.724501 -1.026371 -5.259080 4.930990 -0.700240 -6.732000 
2.897530 16.979120 -7.275340 164.762634 -10.999726 133.301979 -14.468375 14.808567 2.171651 22.544233 3.513223 6.629560 17.008727 2.983107 24.986060 -8.371430 5.724471 2.500748 4.534080 3.168880 0.929120 18.476500 -11.499345 4.021540 10.553294 0.725807 14.570733 -11.245548 -8.090014 50.859441 -0.937800 -8.424366 11.264492 4.880000 -2.270500 -6.663350 -5.130619 -1.072904 -7.916156 -4.913630 -11.303131 72.966028 -17.378396 7.783327 46.738627 8.287886 1.366726 -61.208912 -39.137950 37.713423 102.731420 -4.553800 -0.413640 -93.054650 11.951730 -40.674033 24.860365 -1.158540 -27.512232 -33.137041 41.011289 -22.283677 -9.594556 -8.062292 -2.644280 5.224540 0.383680 -3.631290 1.007120 -32.221771 55.941093 22.936731 12.407725 26.383988 -131.951582 18.320193 62.048218 154.905180 -1.383971 1.485642 -5.577110 5.059760 -0.496370 -6.848730 
2.733360 17.059220 -7.386540 162.549507 -6.023522 133.188072 -14.577884 13.861757 2.191636 20.946501 3.919125 7.724695 27.815887 1.156323 15.535535 -8.621400 5.772873 2.773875 4.120540 2.492110 0.691090 18.456992 -12.270642 3.790304 6.712660 2.047697 15.666944 -9.906390 -8.338270 52.233072 -0.716402 -8.837840 11.257684 4.667870 -2.009730 -6.901290 -4.653588 1.068573 -7.440364 -0.683659 -5.792817 73.843624 -12.229514 7.362580 38.446669 8.961118 -5.225802 -52.330050 -41.196916 38.168269 100.000809 -1.699480 1.711980 -93.055880 1.496863 -52.821087 16.028483 -5.405899 -24.954356 -25.381300 44.536118 -33.574058 -16.429786 -7.397297 -3.418596 5.431780 0.528210 -4.148640 0.751310 -13.136695 76.007698 -0.863355 16.510455 -13.556302 -95.775816 52.469969 60.716070 139.618846 -14.147723 4.752919 -6.151640 5.159840 -0.164440 -7.142830 
2.606640 17.188340 -7.443470 158.502961 -4.116405 133.331191 -14.835695 14.097724 2.713448 17.632159 2.737155 6.209339 36.136020 0.366334 9.932462 -8.669928 6.242823 2.847951 3.437980 1.741020 0.197080 18.121237 -12.359924 3.228714 0.385952 1.366528 17.334501 -11.057894 -7.404333 50.267861 -0.140811 -8.793737 11.502412 4.389450 -1.585880 -7.227680 -3.845728 0.416192 -7.240582 -3.932017 2.778498 76.301088 -8.845935 10.940822 30.257389 13.657838 -8.482436 -43.750581 -41.857789 35.971078 97.844851 -0.574890 -0.087480 -92.045940 -4.336465 -55.475719 29.441401 1.380202 -29.015055 -48.750064 48.069938 -52.289806 -23.367508 -15.012622 0.496949 5.370310 0.798060 -4.702700 0.537430 -11.404822 81.352360 -18.776576 4.951898 -29.000688 -95.417263 79.845507 36.810717 132.866228 -14.912458 8.011323 -6.718900 5.378130 0.202920 -7.208060 
2.463450 17.344710 -7.462730 156.514411 0.509054 132.634848 -14.621723 14.110973 2.422961 21.177410 1.876217 -0.056578 36.640011 -1.316768 14.519357 -8.594350 6.282160 2.922768 3.090350 1.469990 -0.205920 18.234008 -12.962223 3.014250 -3.049103 0.970764 17.788991 -13.637698 -5.558837 48.013778 0.170099 -8.693564 11.683311 4.243220 -1.337550 -7.321830 -4.144766 1.769527 -7.031795 -8.680663 6.382727 79.070394 -8.269594 11.215787 21.736676 14.667589 -8.689796 -38.417270 -41.632009 35.675309 94.276653 4.727140 1.128890 -90.755280 -6.067766 -60.013449 29.241168 -1.986312 -18.061902 -54.268178 71.952546 -74.605466 -35.358948 -17.370974 4.791482 5.158860 0.955040 -4.951250 0.532590 -10.787597 86.774842 -21.974639 -7.058949 -29.814714 -92.346629 83.199077 25.837106 137.677155 -13.532674 6.341277 -6.812830 5.350030 0.303790 -7.083280 
2.270980 17.598620 -7.557540 159.098859 2.323806 132.250608 -14.859092 13.127967 3.035594 29.384998 2.763261 -4.880805 31.379802 1.704956 4.803621 -8.401449 5.991822 3.195830 2.927990 1.411980 -0.538040 18.154854 -12.478145 2.657183 -4.394729 -1.197905 21.254724 -12.831223 -5.661899 40.258839 0.384440 -8.163193 12.049529 4.152970 -1.063440 -7.353630 -3.818562 3.540498 -7.808823 0.269043 3.396434 81.873066 -7.999026 7.063368 18.534476 11.189911 -12.407574 -33.846089 -40.412890 31.816702 94.428026 14.959120 4.168940 -89.213050 -6.010279 -61.630750 26.017141 4.287925 -21.344020 -38.808626 62.712031 -68.331283 -38.428684 -5.456454 -4.195083 4.992140 1.059700 -5.057360 0.704640 -8.375880 86.354600 -25.748992 -17.221020 -32.578847 -86.042816 85.124501 20.237016 127.054215 -18.665438 16.302908 -6.815050 5.442910 0.308920 -6.893340 
1.972240 17.895220 -7.763160 159.390129 9.884354 131.159897 -15.127449 13.054420 2.966647 33.885035 -0.046449 -1.486999 37.101320 0.310482 7.495808 -7.663625 6.607045 2.974511 2.850280 1.412700 -0.774490 17.942287 -12.102464 2.314275 -8.728008 -4.380258 24.979635 -12.884509 -5.569015 30.863490 0.419910 -7.746607 12.171019 3.965100 -0.886500 -7.048030 -3.385042 6.295449 -8.079317 16.243996 3.565090 83.348778 -4.594614 -4.449611 14.508486 5.155908 -16.297742 -28.545501 -42.272018 29.527814 91.958464 21.486500 6.373560 -85.242340 -11.379123 -71.047369 25.365675 3.993334 -12.982550 -42.436113 76.932914 -78.645428 -48.402809 -7.494016 -1.032974 4.622070 1.169410 -4.995020 0.943160 3.774342 85.407288 -21.522361 -32.309333 -25.410298 -68.225020 83.198094 18.769756 131.497804 -23.833443 22.568692 -6.408200 5.164810 0.187910 -6.577350 
1.807980 18.273790 -7.928810 159.804438 11.889235 131.555134 -15.025550 13.172984 3.742832 40.518562 1.135367 -3.675520 29.051199 2.437382 7.791453 -7.958455 6.907594 2.823603 2.795420 1.343410 -0.921670 18.045091 -11.508016 2.359457 -14.391337 -7.260144 29.042551 -8.054396 -6.678255 18.458482 0.589213 -7.461106 12.492511 4.034930 -0.648950 -7.145860 -4.332188 7.093885 -7.803964 20.223223 3.203777 80.461866 -0.014201 -7.165545 14.095532 -6.975273 -18.592873 -18.488018 -39.480030 22.666965 89.860946 26.746620 8.259500 -84.255160 -5.574652 -79.190795 3.773589 5.310896 -13.946507 -30.195192 62.198832 -66.788885 -37.463699 -8.763490 -1.707242 4.678610 1.346460 -5.216340 0.989410 25.114385 87.198173 -5.458992 -47.159962 -17.216199 -41.903908 79.626027 31.027713 140.696467 -24.592280 18.319892 -6.685240 5.350680 0.274660 -6.667580 
1.644490 18.640170 -8.147180 159.173159 15.277890 132.068692 -14.515252 12.684197 4.157918 43.619762 1.977808 -0.293620 24.645522 4.258326 5.907977 -8.058839 7.362562 2.738903 2.577260 1.070180 -1.067440 18.477087 -11.760008 2.864858 -20.687126 -9.382361 32.537894 -1.888895 -7.722538 4.565780 0.511375 -7.769260 12.566871 3.918010 -0.332390 -7.314450 -5.820873 8.414437 -7.827553 19.826661 1.900483 76.575265 1.760685 -4.344424 12.356462 -15.708907 -17.353231 -7.852580 -32.187114 15.661440 86.053903 28.639720 7.874410 -81.493440 -1.295912 -86.232965 -13.955084 7.741838 -13.788677 -17.000309 58.955106 -62.614525 -32.240845 -7.055442 -3.841381 4.670760 1.510490 -5.510430 0.954900 37.107320 89.591297 3.853923 -53.544484 -12.285390 11.448977 51.165949 73.540196 146.228826 -33.088386 22.415992 -6.989790 5.620790 0.481560 -6.709730 
